<svg width="15" height="15" viewBox="0 0 15 15" fill="none" xmlns="http://www.w3.org/2000/svg">
<path d="M7.5 10.625C7.34044 10.6242 7.18306 10.5879 7.03929 10.5187C6.89551 10.4495 6.76893 10.3492 6.66875 10.225L4.0375 7.0375C3.88374 6.84561 3.78699 6.61438 3.75826 6.37017C3.72953 6.12596 3.76998 5.87859 3.875 5.65625C3.96017 5.46302 4.09917 5.29838 4.27538 5.18201C4.4516 5.06564 4.65759 5.00246 4.86875 5H10.1312C10.3424 5.00246 10.5484 5.06564 10.7246 5.18201C10.9008 5.29838 11.0398 5.46302 11.125 5.65625C11.23 5.87859 11.2705 6.12596 11.2417 6.37017C11.213 6.61438 11.1163 6.84561 10.9625 7.0375L8.33125 10.225C8.23106 10.3492 8.10449 10.4495 7.96071 10.5187C7.81693 10.5879 7.65955 10.6242 7.5 10.625Z" fill="#14C8E0"/>
</svg>
