<svg width="20" height="20" viewBox="0 0 20 20" fill="none" xmlns="http://www.w3.org/2000/svg">
<path d="M15.65 9.47495L11.6667 4.47495C11.5979 4.38935 11.5129 4.31818 11.4165 4.26553C11.3202 4.21289 11.2143 4.17981 11.1052 4.16819C10.996 4.15657 10.8856 4.16665 10.7803 4.19784C10.675 4.22904 10.5769 4.28073 10.4917 4.34995C10.4061 4.41872 10.3349 4.50373 10.2822 4.60009C10.2296 4.69646 10.1965 4.80228 10.1849 4.91147C10.1733 5.02066 10.1834 5.13107 10.2146 5.23635C10.2458 5.34163 10.2974 5.43971 10.3667 5.52495L13.925 9.99995L10.1917 14.475C10.1215 14.5592 10.0686 14.6564 10.0361 14.7611C10.0036 14.8657 9.99199 14.9758 10.0021 15.0849C10.0121 15.1941 10.0436 15.3002 10.0947 15.3971C10.1459 15.4941 10.2156 15.58 10.3 15.65C10.4511 15.7712 10.6397 15.836 10.8333 15.8333C10.9558 15.8335 11.0767 15.8067 11.1876 15.7549C11.2985 15.703 11.3966 15.6274 11.475 15.5333L15.6417 10.5333C15.7654 10.3851 15.8339 10.1986 15.8354 10.0056C15.8369 9.81259 15.7714 9.62503 15.65 9.47495Z" fill="black"/>
<path d="M5.83329 4.47498C5.69406 4.29707 5.48984 4.18175 5.26558 4.1544C5.04132 4.12705 4.81538 4.18991 4.63746 4.32915C4.45955 4.46839 4.34423 4.6726 4.31688 4.89686C4.28953 5.12112 4.35239 5.34707 4.49163 5.52498L8.09163 9.99998L4.35829 14.4666C4.28813 14.5509 4.23526 14.6481 4.20272 14.7527C4.17019 14.8574 4.15862 14.9675 4.16868 15.0766C4.17874 15.1858 4.21024 15.2919 4.26137 15.3888C4.31249 15.4858 4.38225 15.5717 4.46663 15.6416C4.61656 15.7659 4.80525 15.8337 4.99996 15.8333C5.12239 15.8335 5.24335 15.8067 5.35426 15.7549C5.46516 15.703 5.56328 15.6274 5.64163 15.5333L9.8083 10.5333C9.93086 10.3842 9.99787 10.1972 9.99787 10.0041C9.99787 9.81113 9.93086 9.62409 9.8083 9.47498L5.83329 4.47498Z" fill="black"/>
</svg>
