<svg width="30" height="24" viewBox="0 0 30 24" fill="none" xmlns="http://www.w3.org/2000/svg">
<path d="M15 0C12.3669 6.68898e-05 9.78024 0.693227 7.49994 2.00981C5.21965 3.3264 3.32609 5.22002 2.00957 7.50035C0.693061 9.78069 -1.67229e-05 12.3674 3.02626e-10 15.0005C1.67235e-05 17.6336 0.693127 20.2203 2.00967 22.5006C2.20859 22.8467 2.53685 23.0996 2.92225 23.2037C3.30765 23.3078 3.71861 23.2545 4.06472 23.0556C4.41084 22.8567 4.66376 22.5284 4.76784 22.143C4.87193 21.7576 4.81865 21.3466 4.61974 21.0005C3.55687 19.1797 2.99772 17.1087 2.99969 15.0004C3.00041 13.1601 3.42436 11.3447 4.23876 9.69439C5.05316 8.04413 6.2362 6.60328 7.69639 5.48326C9.15657 4.36323 10.8548 3.59404 12.6597 3.23516C14.4647 2.87627 16.328 2.93731 18.1056 3.41355C19.8831 3.8898 21.5274 4.76849 22.9111 5.98168C24.2949 7.19487 25.3811 8.71005 26.0857 10.4101C26.7904 12.1101 27.0946 13.9494 26.9749 15.7858C26.8552 17.6222 26.3147 19.4064 25.3953 21.0005C25.2961 21.1717 25.2318 21.3609 25.206 21.557C25.1802 21.7532 25.1935 21.9525 25.2451 22.1436C25.2967 22.3346 25.3855 22.5135 25.5066 22.67C25.6276 22.8265 25.7784 22.9576 25.9503 23.0556C26.2947 23.2511 26.7025 23.3025 27.0847 23.1986C27.4669 23.0946 27.7924 22.8437 27.9903 22.5006C29.3069 20.2203 30 17.6336 30 15.0005C30 12.3674 29.3069 9.78069 27.9904 7.50035C26.6739 5.22002 24.7803 3.3264 22.5001 2.00981C20.2198 0.693227 17.6331 6.68898e-05 15 0ZM19.2601 8.64022L16.935 10.9503C16.3332 10.6535 15.671 10.4995 15 10.5003C14.11 10.5003 13.2399 10.7642 12.4999 11.2587C11.7598 11.7531 11.183 12.456 10.8424 13.2783C10.5018 14.1005 10.4127 15.0054 10.5864 15.8783C10.76 16.7512 11.1886 17.5531 11.8179 18.1824C12.4473 18.8118 13.2491 19.2404 14.1221 19.414C14.995 19.5877 15.8998 19.4985 16.7221 19.1579C17.5444 18.8173 18.2472 18.2405 18.7417 17.5005C19.2362 16.7605 19.5001 15.8904 19.5001 15.0004C19.4991 14.3344 19.3451 13.6775 19.0501 13.0803L21.3752 10.7703C21.5158 10.6308 21.6274 10.4649 21.7035 10.2821C21.7797 10.0993 21.8189 9.90327 21.8189 9.70525C21.8189 9.50722 21.7797 9.31116 21.7035 9.12837C21.6274 8.94557 21.5158 8.77967 21.3752 8.64022C21.0941 8.36084 20.7139 8.20402 20.3176 8.20402C19.9213 8.20402 19.5412 8.36084 19.2601 8.64022ZM15 16.5004C14.6022 16.5004 14.2206 16.3424 13.9393 16.0611C13.658 15.7798 13.5 15.3982 13.5 15.0004C13.5 14.6025 13.658 14.221 13.9393 13.9397C14.2206 13.6584 14.6022 13.5003 15 13.5003C15.3914 13.498 15.7682 13.6487 16.05 13.9204C16.1936 14.061 16.3074 14.2291 16.3847 14.4147C16.462 14.6002 16.5012 14.7994 16.5 15.0004C16.5 15.3982 16.342 15.7798 16.0607 16.0611C15.7794 16.3424 15.3978 16.5004 15 16.5004Z" fill="#14C8E0"/>
</svg>
