<svg width="20" height="20" viewBox="0 0 20 20" fill="none" xmlns="http://www.w3.org/2000/svg">
<path d="M15.65 9.47498L11.6667 4.47498C11.5979 4.38938 11.5129 4.31821 11.4165 4.26556C11.3202 4.21292 11.2143 4.17984 11.1052 4.16822C10.996 4.1566 10.8856 4.16668 10.7803 4.19787C10.675 4.22907 10.5769 4.28076 10.4917 4.34998C10.4061 4.41875 10.3349 4.50376 10.2822 4.60012C10.2296 4.69649 10.1965 4.80231 10.1849 4.9115C10.1733 5.02069 10.1834 5.1311 10.2146 5.23638C10.2458 5.34166 10.2974 5.43974 10.3667 5.52498L13.925 9.99998L10.1917 14.475C10.1215 14.5592 10.0686 14.6564 10.0361 14.7611C10.0036 14.8658 9.99199 14.9758 10.0021 15.085C10.0121 15.1941 10.0436 15.3002 10.0947 15.3972C10.1459 15.4941 10.2156 15.58 10.3 15.65C10.4511 15.7712 10.6397 15.836 10.8333 15.8333C10.9558 15.8335 11.0767 15.8067 11.1876 15.7549C11.2985 15.703 11.3966 15.6274 11.475 15.5333L15.6417 10.5333C15.7654 10.3852 15.8339 10.1987 15.8354 10.0056C15.8369 9.81262 15.7714 9.62506 15.65 9.47498Z" fill="#8490BD"/>
<path d="M5.83336 4.47501C5.69412 4.2971 5.4899 4.18178 5.26564 4.15443C5.04138 4.12708 4.81544 4.18994 4.63752 4.32918C4.45961 4.46842 4.34429 4.67263 4.31694 4.89689C4.28959 5.12115 4.35245 5.3471 4.49169 5.52501L8.09169 10L4.35836 14.4667C4.28819 14.5509 4.23532 14.6481 4.20278 14.7528C4.17025 14.8574 4.15868 14.9675 4.16874 15.0767C4.1788 15.1858 4.2103 15.2919 4.26143 15.3888C4.31256 15.4858 4.38231 15.5717 4.46669 15.6417C4.61662 15.7659 4.80531 15.8337 5.00002 15.8333C5.12245 15.8335 5.24341 15.8068 5.35432 15.7549C5.46522 15.7031 5.56334 15.6274 5.64169 15.5333L9.80836 10.5333C9.93092 10.3842 9.99793 10.1972 9.99793 10.0042C9.99793 9.81116 9.93092 9.62412 9.80836 9.47501L5.83336 4.47501Z" fill="#8490BD"/>
</svg>
