<svg width="21" height="21" viewBox="0 0 21 21" fill="none" xmlns="http://www.w3.org/2000/svg">
<path d="M18.6502 12.6754C18.6493 11.8845 18.3347 11.1263 17.7755 10.5671C17.2163 10.0079 16.4581 9.69332 15.6673 9.69239H5.23087C4.83533 9.692 4.4561 9.53471 4.17639 9.25503C3.89669 8.97535 3.73935 8.59614 3.73892 8.20059V5.8587C4.2515 5.7251 4.71917 5.45721 5.09374 5.08266C5.4683 4.70811 5.7362 4.24045 5.86982 3.72787H15.0283C15.2098 4.43069 15.6414 5.04319 16.2421 5.45058C16.8429 5.85796 17.5716 6.03226 18.2917 5.9408C19.0118 5.84934 19.6738 5.4984 20.1536 4.95376C20.6334 4.40912 20.8982 3.70817 20.8982 2.98231C20.8982 2.25645 20.6334 1.5555 20.1536 1.01086C19.6738 0.466224 19.0118 0.115282 18.2917 0.0238205C17.5716 -0.0676412 16.8429 0.106656 16.2421 0.514042C15.6414 0.921428 15.2098 1.53393 15.0283 2.23675H5.86982C5.73938 1.72809 5.47668 1.26301 5.10838 0.888715C4.74008 0.514419 4.2793 0.244236 3.77282 0.105597C3.26635 -0.033043 2.7322 -0.035203 2.22462 0.099336C1.71704 0.233875 1.25409 0.500322 0.882776 0.871628C0.511463 1.24293 0.245006 1.70588 0.110457 2.21346C-0.0240928 2.72104 -0.0219438 3.25518 0.116686 3.76166C0.255315 4.26814 0.525488 4.72892 0.899777 5.09723C1.27407 5.46554 1.73914 5.72825 2.24779 5.8587V8.20059C2.24874 8.99145 2.56333 9.74964 3.12257 10.3089C3.68181 10.8681 4.44001 11.1826 5.23087 11.1835H15.6673C16.0628 11.1839 16.442 11.3413 16.7217 11.6209C17.0014 11.9006 17.1587 12.2799 17.1591 12.6754V14.9113H14.9224V17.148H5.86982C5.68835 16.4452 5.25679 15.8327 4.65603 15.4253C4.05527 15.018 3.32656 14.8437 2.60648 14.9351C1.88641 15.0266 1.2244 15.3775 0.744567 15.9222C0.26473 16.4668 0 17.1677 0 17.8936C0 18.6195 0.26473 19.3204 0.744567 19.8651C1.2244 20.4097 1.88641 20.7606 2.60648 20.8521C3.32656 20.9436 4.05527 20.7693 4.65603 20.3619C5.25679 19.9545 5.68835 19.342 5.86982 18.6392H14.9224V20.8759H20.8869V14.9113H18.6502V12.6754ZM17.9047 1.49118C18.1996 1.49118 18.4879 1.57863 18.7331 1.74248C18.9783 1.90633 19.1694 2.13921 19.2823 2.41168C19.3951 2.68415 19.4247 2.98396 19.3671 3.27322C19.3096 3.56247 19.1676 3.82816 18.959 4.0367C18.7505 4.24524 18.4848 4.38725 18.1956 4.44479C17.9063 4.50232 17.6065 4.47279 17.334 4.35993C17.0616 4.24707 16.8287 4.05595 16.6648 3.81074C16.501 3.56552 16.4135 3.27723 16.4135 2.98231C16.4139 2.58695 16.5711 2.2079 16.8507 1.92834C17.1302 1.64878 17.5093 1.49156 17.9047 1.49118ZM1.50223 2.98231C1.50223 2.68739 1.58968 2.3991 1.75353 2.15388C1.91737 1.90867 2.15026 1.71755 2.42273 1.60469C2.69519 1.49183 2.99501 1.4623 3.28426 1.51983C3.57351 1.57737 3.83921 1.71938 4.04774 1.92792C4.25628 2.13646 4.3983 2.40215 4.45583 2.69141C4.51337 2.98066 4.48384 3.28047 4.37098 3.55294C4.25812 3.82541 4.067 4.05829 3.82178 4.22214C3.57657 4.38599 3.28827 4.47344 2.99336 4.47344C2.598 4.47306 2.21894 4.31584 1.93938 4.03628C1.65982 3.75672 1.5026 3.37767 1.50223 2.98231ZM2.99336 19.3847C2.69844 19.3847 2.41014 19.2973 2.16493 19.1334C1.91971 18.9696 1.72859 18.7367 1.61573 18.4642C1.50287 18.1918 1.47334 17.892 1.53088 17.6027C1.58841 17.3134 1.73043 17.0478 1.93897 16.8392C2.14751 16.6307 2.4132 16.4887 2.70245 16.4311C2.9917 16.3736 3.29152 16.4031 3.56399 16.516C3.83645 16.6288 4.06934 16.82 4.23318 17.0652C4.39703 17.3104 4.48449 17.5987 4.48449 17.8936C4.48409 18.289 4.32686 18.668 4.04731 18.9476C3.76775 19.2271 3.38871 19.3843 2.99336 19.3847ZM19.3958 16.4025V19.3847H16.4135V16.4025H19.3958Z" fill="#14C8E0"/>
</svg>
