<svg width="20" height="20" viewBox="0 0 20 20" fill="none" xmlns="http://www.w3.org/2000/svg">
<path d="M4.35 9.47498L8.33333 4.47498C8.4021 4.38938 8.48711 4.31821 8.58347 4.26556C8.67984 4.21292 8.78566 4.17984 8.89485 4.16822C9.00404 4.1566 9.11445 4.16668 9.21973 4.19787C9.32501 4.22907 9.42309 4.28076 9.50833 4.34998C9.59394 4.41875 9.66511 4.50376 9.71775 4.60012C9.7704 4.69649 9.80348 4.80231 9.81509 4.9115C9.82671 5.02069 9.81663 5.1311 9.78544 5.23638C9.75425 5.34166 9.70255 5.43974 9.63333 5.52498L6.075 9.99998L9.80833 14.475C9.8785 14.5592 9.93137 14.6564 9.9639 14.7611C9.99644 14.8658 10.008 14.9758 9.99795 15.085C9.98788 15.1941 9.95639 15.3002 9.90526 15.3972C9.85413 15.4941 9.78438 15.58 9.7 15.65C9.54893 15.7712 9.36035 15.836 9.16666 15.8333C9.04424 15.8335 8.92327 15.8067 8.81237 15.7549C8.70147 15.703 8.60335 15.6274 8.525 15.5333L4.35833 10.5333C4.23458 10.3852 4.1661 10.1987 4.16458 10.0056C4.16306 9.81262 4.2286 9.62506 4.35 9.47498Z" fill="#8490BD"/>
<path d="M14.1666 4.47501C14.3059 4.2971 14.5101 4.18178 14.7344 4.15443C14.9586 4.12708 15.1846 4.18994 15.3625 4.32918C15.5404 4.46842 15.6557 4.67263 15.6831 4.89689C15.7104 5.12115 15.6475 5.3471 15.5083 5.52501L11.9083 10L15.6416 14.4667C15.7118 14.5509 15.7647 14.6481 15.7972 14.7528C15.8298 14.8574 15.8413 14.9675 15.8313 15.0767C15.8212 15.1858 15.7897 15.2919 15.7386 15.3888C15.6874 15.4858 15.6177 15.5717 15.5333 15.6417C15.3834 15.7659 15.1947 15.8337 15 15.8333C14.8776 15.8335 14.7566 15.8068 14.6457 15.7549C14.5348 15.7031 14.4367 15.6274 14.3583 15.5333L10.1916 10.5333C10.0691 10.3842 10.0021 10.1972 10.0021 10.0042C10.0021 9.81116 10.0691 9.62412 10.1916 9.47501L14.1666 4.47501Z" fill="#8490BD"/>
</svg>
