<svg width="35" height="35" viewBox="0 0 35 35" fill="none" xmlns="http://www.w3.org/2000/svg">
<g clip-path="url(#clip0_130_529)">
<path d="M27.0795 12.963L29.8148 15.6983C29.9818 15.8655 30.0757 16.0922 30.0757 16.3286C30.0757 16.565 29.9818 16.7917 29.8148 16.9589C29.7343 17.0414 29.6381 17.107 29.5319 17.1519C29.4257 17.1969 29.3117 17.2202 29.1964 17.2205L18.719 17.4941C18.5585 17.4982 18.3988 17.4697 18.2496 17.4104C18.1004 17.3512 17.9648 17.2623 17.8508 17.1492C17.7356 17.0363 17.6445 16.901 17.5832 16.7518C17.5218 16.6025 17.4915 16.4424 17.494 16.281C17.5654 13.9025 17.6962 8.70542 17.7795 5.80362C17.7798 5.68833 17.8032 5.57427 17.8481 5.46809C17.893 5.36191 17.9586 5.26575 18.0411 5.1852C18.2083 5.01817 18.435 4.92435 18.6714 4.92435C18.9078 4.92435 19.1345 5.01817 19.3017 5.1852L22.037 7.92051L29.6245 0.333012C29.8473 0.11151 30.1488 -0.0128174 30.463 -0.0128174C30.7771 -0.0128174 31.0786 0.11151 31.3014 0.333012L34.667 3.69862C34.8885 3.92145 35.0128 4.22287 35.0128 4.53706C35.0128 4.85124 34.8885 5.15266 34.667 5.37548L27.0795 12.963Z" fill="#3675EE"/>
<path d="M7.92038 22.037L5.18508 19.3017C5.01805 19.1345 4.92423 18.9078 4.92423 18.6714C4.92423 18.435 5.01805 18.2083 5.18508 18.0411C5.35357 17.8979 5.57091 17.8255 5.7916 17.8389L16.2809 17.5535C16.4422 17.551 16.6024 17.5813 16.7517 17.6426C16.9009 17.7039 17.0361 17.795 17.1491 17.9103C17.2622 18.0242 17.351 18.1599 17.4103 18.3091C17.4696 18.4583 17.498 18.6179 17.4939 18.7784C17.4345 21.157 17.3037 26.354 17.2204 29.2558C17.2201 29.3711 17.1967 29.4852 17.1518 29.5914C17.1069 29.6975 17.0413 29.7937 16.9588 29.8743C16.7915 30.0413 16.5648 30.1351 16.3285 30.1351C16.0921 30.1351 15.8654 30.0413 15.6982 29.8743L12.9629 27.1389L5.37536 34.667C5.15254 34.8885 4.85112 35.0128 4.53693 35.0128C4.22275 35.0128 3.92133 34.8885 3.6985 34.667L0.332889 31.3014C0.111388 31.0785 -0.0129395 30.7771 -0.0129395 30.4629C-0.0129395 30.1488 0.111388 29.8473 0.332889 29.6245L7.92038 22.037Z" fill="#3675EE"/>
</g>
<defs>
<clipPath id="clip0_130_529">
<rect width="35" height="35" fill="white"/>
</clipPath>
</defs>
</svg>
